<svg width="1234.201" height="143.002" viewBox="0 0 1234.201 143.002" xmlns="http://www.w3.org/2000/svg"><g id="svgGroup" stroke-linecap="round" fill-rule="evenodd" font-size="9pt" stroke="#ffffff" stroke-width="0.25mm" fill="#ffffff" style="stroke:#ffffff;stroke-width:0.25mm;fill:#ffffff"><path d="M 1069.401 142.4 L 1065.401 142.4 L 1065.401 39 L 1069.401 39 L 1069.401 68.2 L 1069.001 67.6 Q 1073.401 54.2 1084.401 46.3 Q 1095.401 38.4 1111.601 38.4 Q 1127.601 38.4 1138.001 46.5 Q 1148.401 54.6 1151.001 70.6 L 1150.401 70.4 Q 1154.201 56.2 1165.501 47.3 Q 1176.801 38.4 1194.001 38.4 Q 1206.401 38.4 1215.401 43.3 Q 1224.401 48.2 1229.301 57.8 Q 1234.201 67.4 1234.201 81.4 L 1234.201 142.4 L 1230.201 142.4 L 1230.201 81.4 Q 1230.201 62.2 1220.701 52.2 Q 1211.201 42.2 1194.201 42.2 Q 1181.001 42.2 1171.501 47.7 Q 1162.001 53.2 1156.901 63.1 Q 1151.801 73 1151.801 86.2 L 1151.801 142.4 L 1147.801 142.4 L 1147.801 81.4 Q 1147.801 62.2 1138.301 52.2 Q 1128.801 42.2 1111.801 42.2 Q 1098.601 42.2 1089.101 47.7 Q 1079.601 53.2 1074.501 63.1 Q 1069.401 73 1069.401 86.2 L 1069.401 142.4 Z M 510.801 90.6 L 417.201 90.6 L 417.201 86.8 L 508.601 86.8 L 507.001 89.8 Q 507.001 76.2 501.201 65.4 Q 495.401 54.6 485.501 48.4 Q 475.601 42.2 462.801 42.2 Q 450.201 42.2 440.201 48.4 Q 430.201 54.6 424.501 65.4 Q 418.801 76.2 418.801 89.8 L 418.801 90.6 Q 418.801 104.8 425.001 115.8 Q 431.201 126.8 442.001 133 Q 452.801 139.2 466.601 139.2 Q 477.001 139.2 486.301 135.2 Q 495.601 131.2 501.801 123.2 L 504.601 126 Q 497.801 134.4 487.801 138.7 Q 477.801 143 466.601 143 Q 451.601 143 440.001 136.3 Q 428.401 129.6 421.701 117.7 Q 415.001 105.8 415.001 90.6 Q 415.001 75.2 421.201 63.5 Q 427.401 51.8 438.301 45.1 Q 449.201 38.4 462.801 38.4 Q 476.401 38.4 487.301 44.9 Q 498.201 51.4 504.501 63 Q 510.801 74.6 510.801 89.6 L 510.801 90 L 510.801 90.6 Z M 119.401 19.6 L 117.001 22.4 Q 107.401 13.2 96.001 9.4 Q 84.601 5.6 71.801 5.6 Q 57.401 5.6 45.001 10.7 Q 32.601 15.8 23.401 24.9 Q 14.201 34 9.101 46.1 Q 4.001 58.2 4.001 72.4 Q 4.001 86.6 9.101 98.7 Q 14.201 110.8 23.401 119.9 Q 32.601 129 45.001 134.1 Q 57.401 139.2 71.801 139.2 Q 84.601 139.2 96.001 135.3 Q 107.401 131.4 117.001 122.2 L 119.401 125 Q 110.401 134 98.001 138.5 Q 85.601 143 71.801 143 Q 56.401 143 43.301 137.7 Q 30.201 132.4 20.501 122.8 Q 10.801 113.2 5.401 100.4 Q 0.001 87.6 0.001 72.4 Q 0.001 57.2 5.401 44.4 Q 10.801 31.6 20.501 22 Q 30.201 12.4 43.301 7.1 Q 56.401 1.8 71.801 1.8 Q 85.601 1.8 98.001 6.2 Q 110.401 10.6 119.401 19.6 Z M 548.601 142.4 L 544.601 142.4 L 544.601 39 L 548.601 39 L 548.601 68.4 L 548.201 67.8 Q 552.801 54.2 564.001 46.3 Q 575.201 38.4 592.001 38.4 Q 604.801 38.4 614.001 43.3 Q 623.201 48.2 628.301 57.8 Q 633.401 67.4 633.401 81.4 L 633.401 142.4 L 629.401 142.4 L 629.401 81.4 Q 629.401 62.2 619.601 52.2 Q 609.801 42.2 592.201 42.2 Q 578.601 42.2 568.801 47.7 Q 559.001 53.2 553.801 63.1 Q 548.601 73 548.601 86.2 L 548.601 142.4 Z M 394.601 142.4 L 315.201 142.4 L 315.201 139.4 L 389.001 41.6 L 390.601 42.8 L 316.201 42.8 L 316.201 39 L 393.601 39 L 393.601 42 L 319.801 139.8 L 317.401 138.6 L 394.601 138.6 L 394.601 142.4 Z M 685.801 142.4 L 681.801 142.4 L 681.801 2.4 L 729.201 2.4 Q 755.001 2.4 769.601 14.5 Q 784.201 26.6 784.201 48.4 Q 784.201 62.8 777.601 73.1 Q 771.001 83.4 758.701 88.9 Q 746.401 94.4 729.201 94.4 L 684.001 94.4 L 685.801 92.6 L 685.801 142.4 Z M 685.801 4.6 L 685.801 92.2 L 684.001 90.6 L 729.601 90.6 Q 754.201 90.6 767.201 79.5 Q 780.201 68.4 780.201 48.4 Q 780.201 28.2 767.201 17.2 Q 754.201 6.2 729.601 6.2 L 684.001 6.2 L 685.801 4.6 Z M 203.001 117.6 L 203.001 16.4 L 207.001 16.4 L 207.001 116.6 Q 207.001 127.6 212.401 133.4 Q 217.801 139.2 228.201 139.2 Q 238.601 139.2 245.401 132.8 L 248.201 135.6 Q 244.601 139.4 239.101 141.2 Q 233.601 143 228.001 143 Q 215.801 143 209.401 136 Q 203.001 129 203.001 117.6 Z M 859.401 143 Q 845.001 143 833.701 136.3 Q 822.401 129.6 815.801 117.7 Q 809.201 105.8 809.201 90.6 Q 809.201 75.2 815.801 63.5 Q 822.401 51.8 833.701 45.1 Q 845.001 38.4 859.401 38.4 Q 873.801 38.4 885.201 45.1 Q 896.601 51.8 903.101 63.5 Q 909.601 75.2 909.601 90.6 Q 909.601 105.8 903.101 117.7 Q 896.601 129.6 885.201 136.3 Q 873.801 143 859.401 143 Z M 981.401 143 Q 967.001 143 955.701 136.3 Q 944.401 129.6 937.801 117.7 Q 931.201 105.8 931.201 90.6 Q 931.201 75.2 937.801 63.5 Q 944.401 51.8 955.701 45.1 Q 967.001 38.4 981.401 38.4 Q 995.801 38.4 1007.201 45.1 Q 1018.601 51.8 1025.101 63.5 Q 1031.601 75.2 1031.601 90.6 Q 1031.601 105.8 1025.101 117.7 Q 1018.601 129.6 1007.201 136.3 Q 995.801 143 981.401 143 Z M 859.401 139.2 Q 872.601 139.2 883.101 133 Q 893.601 126.8 899.601 115.8 Q 905.601 104.8 905.601 90.6 Q 905.601 76.2 899.601 65.3 Q 893.601 54.4 883.101 48.3 Q 872.601 42.2 859.401 42.2 Q 846.201 42.2 835.801 48.3 Q 825.401 54.4 819.301 65.3 Q 813.201 76.2 813.201 90.6 Q 813.201 104.8 819.301 115.8 Q 825.401 126.8 835.801 133 Q 846.201 139.2 859.401 139.2 Z M 981.401 139.2 Q 994.601 139.2 1005.101 133 Q 1015.601 126.8 1021.601 115.8 Q 1027.601 104.8 1027.601 90.6 Q 1027.601 76.2 1021.601 65.3 Q 1015.601 54.4 1005.101 48.3 Q 994.601 42.2 981.401 42.2 Q 968.201 42.2 957.801 48.3 Q 947.401 54.4 941.301 65.3 Q 935.201 76.2 935.201 90.6 Q 935.201 104.8 941.301 115.8 Q 947.401 126.8 957.801 133 Q 968.201 139.2 981.401 139.2 Z M 155.401 142.4 L 151.401 142.4 L 151.401 39 L 155.401 39 L 155.401 142.4 Z M 283.001 142.4 L 279.001 142.4 L 279.001 39 L 283.001 39 L 283.001 142.4 Z M 786.201 142.4 L 781.201 142.4 L 744.601 91.6 L 749.601 91.6 L 786.201 142.4 Z M 242.001 42.8 L 183.001 42.8 L 183.001 39 L 242.001 39 L 242.001 42.8 Z M 153.401 10.4 Q 151.401 10.4 149.801 8.8 Q 148.201 7.2 148.201 5.2 Q 148.201 3 149.801 1.5 Q 151.401 0 153.401 0 Q 155.601 0 157.101 1.5 Q 158.601 3 158.601 5.2 Q 158.601 7.2 157.101 8.8 Q 155.601 10.4 153.401 10.4 Z M 281.001 10.4 Q 279.001 10.4 277.401 8.8 Q 275.801 7.2 275.801 5.2 Q 275.801 3 277.401 1.5 Q 279.001 0 281.001 0 Q 283.201 0 284.701 1.5 Q 286.201 3 286.201 5.2 Q 286.201 7.2 284.701 8.8 Q 283.201 10.4 281.001 10.4 Z" vector-effect="non-scaling-stroke"/></g></svg>