<svg width="617.101" height="71.501" viewBox="0 0 617.101 71.501" xmlns="http://www.w3.org/2000/svg"><g id="svgGroup" stroke-linecap="round" fill-rule="evenodd" font-size="9pt" stroke="#000" stroke-width="0.25mm" fill="#000" style="stroke:#000;stroke-width:0.25mm;fill:#000"><path d="M 534.701 71.2 L 532.701 71.2 L 532.701 19.5 L 534.701 19.5 L 534.701 34.1 L 534.501 33.8 Q 536.701 27.1 542.201 23.15 Q 547.701 19.2 555.801 19.2 Q 563.801 19.2 569.001 23.25 Q 574.201 27.3 575.501 35.3 L 575.201 35.2 Q 577.101 28.1 582.751 23.65 Q 588.401 19.2 597.001 19.2 Q 603.201 19.2 607.701 21.65 Q 612.201 24.1 614.651 28.9 Q 617.101 33.7 617.101 40.7 L 617.101 71.2 L 615.101 71.2 L 615.101 40.7 Q 615.101 31.1 610.351 26.1 Q 605.601 21.1 597.101 21.1 Q 590.501 21.1 585.751 23.85 Q 581.001 26.6 578.451 31.55 Q 575.901 36.5 575.901 43.1 L 575.901 71.2 L 573.901 71.2 L 573.901 40.7 Q 573.901 31.1 569.151 26.1 Q 564.401 21.1 555.901 21.1 Q 549.301 21.1 544.551 23.85 Q 539.801 26.6 537.251 31.55 Q 534.701 36.5 534.701 43.1 L 534.701 71.2 Z M 255.401 45.3 L 208.601 45.3 L 208.601 43.4 L 254.301 43.4 L 253.501 44.9 Q 253.501 38.1 250.601 32.7 Q 247.701 27.3 242.751 24.2 Q 237.801 21.1 231.401 21.1 Q 225.101 21.1 220.101 24.2 Q 215.101 27.3 212.251 32.7 Q 209.401 38.1 209.401 44.9 L 209.401 45.3 Q 209.401 52.4 212.501 57.9 Q 215.601 63.4 221.001 66.5 Q 226.401 69.6 233.301 69.6 Q 238.501 69.6 243.151 67.6 Q 247.801 65.6 250.901 61.6 L 252.301 63 Q 248.901 67.2 243.901 69.35 Q 238.901 71.5 233.301 71.5 Q 225.801 71.5 220.001 68.15 Q 214.201 64.8 210.851 58.85 Q 207.501 52.9 207.501 45.3 Q 207.501 37.6 210.601 31.75 Q 213.701 25.9 219.151 22.55 Q 224.601 19.2 231.401 19.2 Q 238.201 19.2 243.651 22.45 Q 249.101 25.7 252.251 31.5 Q 255.401 37.3 255.401 44.8 L 255.401 45 L 255.401 45.3 Z M 59.701 9.8 L 58.501 11.2 Q 53.701 6.6 48.001 4.7 Q 42.301 2.8 35.901 2.8 Q 28.701 2.8 22.501 5.35 Q 16.301 7.9 11.701 12.45 Q 7.101 17 4.551 23.05 Q 2.001 29.1 2.001 36.2 Q 2.001 43.3 4.551 49.35 Q 7.101 55.4 11.701 59.95 Q 16.301 64.5 22.501 67.05 Q 28.701 69.6 35.901 69.6 Q 42.301 69.6 48.001 67.65 Q 53.701 65.7 58.501 61.1 L 59.701 62.5 Q 55.201 67 49.001 69.25 Q 42.801 71.5 35.901 71.5 Q 28.201 71.5 21.651 68.85 Q 15.101 66.2 10.251 61.4 Q 5.401 56.6 2.701 50.2 Q 0.001 43.8 0.001 36.2 Q 0.001 28.6 2.701 22.2 Q 5.401 15.8 10.251 11 Q 15.101 6.2 21.651 3.55 Q 28.201 0.9 35.901 0.9 Q 42.801 0.9 49.001 3.1 Q 55.201 5.3 59.701 9.8 Z M 274.301 71.2 L 272.301 71.2 L 272.301 19.5 L 274.301 19.5 L 274.301 34.2 L 274.101 33.9 Q 276.401 27.1 282.001 23.15 Q 287.601 19.2 296.001 19.2 Q 302.401 19.2 307.001 21.65 Q 311.601 24.1 314.151 28.9 Q 316.701 33.7 316.701 40.7 L 316.701 71.2 L 314.701 71.2 L 314.701 40.7 Q 314.701 31.1 309.801 26.1 Q 304.901 21.1 296.101 21.1 Q 289.301 21.1 284.401 23.85 Q 279.501 26.6 276.901 31.55 Q 274.301 36.5 274.301 43.1 L 274.301 71.2 Z M 197.301 71.2 L 157.601 71.2 L 157.601 69.7 L 194.501 20.8 L 195.301 21.4 L 158.101 21.4 L 158.101 19.5 L 196.801 19.5 L 196.801 21 L 159.901 69.9 L 158.701 69.3 L 197.301 69.3 L 197.301 71.2 Z M 342.901 71.2 L 340.901 71.2 L 340.901 1.2 L 364.601 1.2 Q 377.501 1.2 384.801 7.25 Q 392.101 13.3 392.101 24.2 Q 392.101 31.4 388.801 36.55 Q 385.501 41.7 379.351 44.45 Q 373.201 47.2 364.601 47.2 L 342.001 47.2 L 342.901 46.3 L 342.901 71.2 Z M 342.901 2.3 L 342.901 46.1 L 342.001 45.3 L 364.801 45.3 Q 377.101 45.3 383.601 39.75 Q 390.101 34.2 390.101 24.2 Q 390.101 14.1 383.601 8.6 Q 377.101 3.1 364.801 3.1 L 342.001 3.1 L 342.901 2.3 Z M 101.501 58.8 L 101.501 8.2 L 103.501 8.2 L 103.501 58.3 Q 103.501 63.8 106.201 66.7 Q 108.901 69.6 114.101 69.6 Q 119.301 69.6 122.701 66.4 L 124.101 67.8 Q 122.301 69.7 119.551 70.6 Q 116.801 71.5 114.001 71.5 Q 107.901 71.5 104.701 68 Q 101.501 64.5 101.501 58.8 Z M 429.701 71.5 Q 422.501 71.5 416.851 68.15 Q 411.201 64.8 407.901 58.85 Q 404.601 52.9 404.601 45.3 Q 404.601 37.6 407.901 31.75 Q 411.201 25.9 416.851 22.55 Q 422.501 19.2 429.701 19.2 Q 436.901 19.2 442.601 22.55 Q 448.301 25.9 451.551 31.75 Q 454.801 37.6 454.801 45.3 Q 454.801 52.9 451.551 58.85 Q 448.301 64.8 442.601 68.15 Q 436.901 71.5 429.701 71.5 Z M 490.701 71.5 Q 483.501 71.5 477.851 68.15 Q 472.201 64.8 468.901 58.85 Q 465.601 52.9 465.601 45.3 Q 465.601 37.6 468.901 31.75 Q 472.201 25.9 477.851 22.55 Q 483.501 19.2 490.701 19.2 Q 497.901 19.2 503.601 22.55 Q 509.301 25.9 512.551 31.75 Q 515.801 37.6 515.801 45.3 Q 515.801 52.9 512.551 58.85 Q 509.301 64.8 503.601 68.15 Q 497.901 71.5 490.701 71.5 Z M 429.701 69.6 Q 436.301 69.6 441.551 66.5 Q 446.801 63.4 449.801 57.9 Q 452.801 52.4 452.801 45.3 Q 452.801 38.1 449.801 32.65 Q 446.801 27.2 441.551 24.15 Q 436.301 21.1 429.701 21.1 Q 423.101 21.1 417.901 24.15 Q 412.701 27.2 409.651 32.65 Q 406.601 38.1 406.601 45.3 Q 406.601 52.4 409.651 57.9 Q 412.701 63.4 417.901 66.5 Q 423.101 69.6 429.701 69.6 Z M 490.701 69.6 Q 497.301 69.6 502.551 66.5 Q 507.801 63.4 510.801 57.9 Q 513.801 52.4 513.801 45.3 Q 513.801 38.1 510.801 32.65 Q 507.801 27.2 502.551 24.15 Q 497.301 21.1 490.701 21.1 Q 484.101 21.1 478.901 24.15 Q 473.701 27.2 470.651 32.65 Q 467.601 38.1 467.601 45.3 Q 467.601 52.4 470.651 57.9 Q 473.701 63.4 478.901 66.5 Q 484.101 69.6 490.701 69.6 Z M 77.701 71.2 L 75.701 71.2 L 75.701 19.5 L 77.701 19.5 L 77.701 71.2 Z M 141.501 71.2 L 139.501 71.2 L 139.501 19.5 L 141.501 19.5 L 141.501 71.2 Z M 393.101 71.2 L 390.601 71.2 L 372.301 45.8 L 374.801 45.8 L 393.101 71.2 Z M 121.001 21.4 L 91.501 21.4 L 91.501 19.5 L 121.001 19.5 L 121.001 21.4 Z M 76.701 5.2 Q 75.701 5.2 74.901 4.4 Q 74.101 3.6 74.101 2.6 Q 74.101 1.5 74.901 0.75 Q 75.701 0 76.701 0 Q 77.801 0 78.551 0.75 Q 79.301 1.5 79.301 2.6 Q 79.301 3.6 78.551 4.4 Q 77.801 5.2 76.701 5.2 Z M 140.501 5.2 Q 139.501 5.2 138.701 4.4 Q 137.901 3.6 137.901 2.6 Q 137.901 1.5 138.701 0.75 Q 139.501 0 140.501 0 Q 141.601 0 142.351 0.75 Q 143.101 1.5 143.101 2.6 Q 143.101 3.6 142.351 4.4 Q 141.601 5.2 140.501 5.2 Z" vector-effect="non-scaling-stroke"/></g></svg>